<?xml version="1.0" encoding="UTF-8" standalone="no"?>
<!DOCTYPE svg PUBLIC "-//W3C//DTD SVG 1.1//EN"
 "http://www.w3.org/Graphics/SVG/1.1/DTD/svg11.dtd">
<!-- Generated by graphviz version 2.38.0 (20140413.2041)
 -->
<!-- Title: goStockDemo Pages: 1 -->
<svg width="100%" height="100%" xmlns="http://www.w3.org/2000/svg" xmlns:xlink="http://www.w3.org/1999/xlink">
<script xlink:href="https://www.cyberz.org/projects/SVGPan/SVGPan.js"/><g id="viewport" transform="scale(0.5,0.5) translate(0,0)"><g id="graph0" class="graph" transform="scale(1 1) rotate(0) translate(4 1186)">
<title>goStockDemo</title>
<polygon fill="white" stroke="none" points="-4,4 -4,-1186 1290,-1186 1290,4 -4,4"/>
<g id="clust1" class="cluster"><title>cluster_L</title>
<polygon fill="none" stroke="black" points="261.5,-1045 261.5,-1174 691.5,-1174 691.5,-1045 261.5,-1045"/>
</g>
<!-- L -->
<g id="node1" class="node"><title>L</title>
<polygon fill="#f8f8f8" stroke="black" points="683.5,-1166 269.5,-1166 269.5,-1053 683.5,-1053 683.5,-1166"/>
<text text-anchor="start" x="277.5" y="-1136.4" font-family="Times,serif" font-size="32.00">File: goStockDemo</text>
<text text-anchor="start" x="277.5" y="-1101.4" font-family="Times,serif" font-size="32.00">Type: cpu</text>
<text text-anchor="start" x="277.5" y="-1066.4" font-family="Times,serif" font-size="32.00">320ms of 320ms total ( &#160;100%)</text>
</g>
<!-- N1 -->
<g id="node2" class="node"><title>N1</title>
<g id="a_node2"><a xlink:title="runtime.xchg (90ms)">
<polygon fill="#f8f8f8" stroke="black" points="458,-586 299,-586 299,-526 458,-526 458,-586"/>
<text text-anchor="middle" x="378.5" y="-562.8" font-family="Times,serif" font-size="24.00">runtime.xchg</text>
<text text-anchor="middle" x="378.5" y="-536.8" font-family="Times,serif" font-size="24.00">90ms(28.12%)</text>
</a>
</g>
</g>
<!-- N2 -->
<g id="node3" class="node"><title>N2</title>
<g id="a_node3"><a xlink:title="runtime.indexbytebody (50ms)">
<polygon fill="#f8f8f8" stroke="black" points="839.5,-689.5 639.5,-689.5 639.5,-637.5 839.5,-637.5 839.5,-689.5"/>
<text text-anchor="middle" x="739.5" y="-669.5" font-family="Times,serif" font-size="20.00">runtime.indexbytebody</text>
<text text-anchor="middle" x="739.5" y="-647.5" font-family="Times,serif" font-size="20.00">50ms(15.62%)</text>
</a>
</g>
</g>
<!-- N3 -->
<g id="node4" class="node"><title>N3</title>
<g id="a_node4"><a xlink:title="strconv.readFloat (20ms)">
<polygon fill="#f8f8f8" stroke="black" points="269.5,-578 141.5,-578 141.5,-534 269.5,-534 269.5,-578"/>
<text text-anchor="middle" x="205.5" y="-561.2" font-family="Times,serif" font-size="16.00">strconv.readFloat</text>
<text text-anchor="middle" x="205.5" y="-543.2" font-family="Times,serif" font-size="16.00">20ms(6.25%)</text>
</a>
</g>
</g>
<!-- N4 -->
<g id="node5" class="node"><title>N4</title>
<g id="a_node5"><a xlink:title="bufio.(*Scanner).Scan (80ms)">
<polygon fill="#f8f8f8" stroke="black" points="808.5,-898 670.5,-898 670.5,-845 808.5,-845 808.5,-898"/>
<text text-anchor="middle" x="739.5" y="-882.8" font-family="Times,serif" font-size="14.00">bufio.(*Scanner).Scan</text>
<text text-anchor="middle" x="739.5" y="-867.8" font-family="Times,serif" font-size="14.00">10ms(3.12%)</text>
<text text-anchor="middle" x="739.5" y="-852.8" font-family="Times,serif" font-size="14.00">of 80ms(25.00%)</text>
</a>
</g>
</g>
<!-- N5 -->
<g id="node6" class="node"><title>N5</title>
<g id="a_node6"><a xlink:title="bufio.ScanLines (60ms)">
<polygon fill="#f8f8f8" stroke="black" points="796,-794 683,-794 683,-741 796,-741 796,-794"/>
<text text-anchor="middle" x="739.5" y="-778.8" font-family="Times,serif" font-size="14.00">bufio.ScanLines</text>
<text text-anchor="middle" x="739.5" y="-763.8" font-family="Times,serif" font-size="14.00">10ms(3.12%)</text>
<text text-anchor="middle" x="739.5" y="-748.8" font-family="Times,serif" font-size="14.00">of 60ms(18.75%)</text>
</a>
</g>
</g>
<!-- N4&#45;&gt;N5 -->
<g id="edge6" class="edge"><title>N4&#45;&gt;N5</title>
<g id="a_edge6"><a xlink:title="bufio.(*Scanner).Scan &#45;&gt; bufio.ScanLines (60ms)">
<path fill="none" stroke="black" d="M739.5,-844.761C739.5,-832.56 739.5,-817.779 739.5,-804.49"/>
<polygon fill="black" stroke="black" points="743,-804.231 739.5,-794.231 736,-804.231 743,-804.231"/>
</a>
</g>
<g id="a_edge6&#45;label"><a xlink:title="bufio.(*Scanner).Scan &#45;&gt; bufio.ScanLines (60ms)">
<text text-anchor="middle" x="756.5" y="-815.8" font-family="Times,serif" font-size="14.00"> 60ms</text>
</a>
</g>
</g>
<!-- N20 -->
<g id="node21" class="node"><title>N20</title>
<g id="a_node21"><a xlink:title="bufio.(*Reader).Read (10ms)">
<polygon fill="#f8f8f8" stroke="black" points="901,-785.5 814,-785.5 814,-749.5 901,-749.5 901,-785.5"/>
<text text-anchor="middle" x="857.5" y="-770.1" font-family="Times,serif" font-size="8.00">bufio.(*Reader).Read</text>
<text text-anchor="middle" x="857.5" y="-761.1" font-family="Times,serif" font-size="8.00">0 of 10ms(3.12%)</text>
</a>
</g>
</g>
<!-- N4&#45;&gt;N20 -->
<g id="edge25" class="edge"><title>N4&#45;&gt;N20</title>
<g id="a_edge25"><a xlink:title="bufio.(*Scanner).Scan &#45;&gt; bufio.(*Reader).Read (10ms)">
<path fill="none" stroke="black" d="M769.276,-844.761C787.867,-828.691 811.637,-808.144 829.819,-792.427"/>
<polygon fill="black" stroke="black" points="832.465,-794.767 837.741,-785.58 827.887,-789.471 832.465,-794.767"/>
</a>
</g>
<g id="a_edge25&#45;label"><a xlink:title="bufio.(*Scanner).Scan &#45;&gt; bufio.(*Reader).Read (10ms)">
<text text-anchor="middle" x="823.5" y="-815.8" font-family="Times,serif" font-size="14.00"> 10ms</text>
</a>
</g>
</g>
<!-- N5&#45;&gt;N2 -->
<g id="edge8" class="edge"><title>N5&#45;&gt;N2</title>
<g id="a_edge8"><a xlink:title="bufio.ScanLines &#45;&gt; runtime.indexbytebody (50ms)">
<path fill="none" stroke="black" d="M739.5,-740.761C739.5,-728.374 739.5,-713.327 739.5,-699.883"/>
<polygon fill="black" stroke="black" points="743,-699.525 739.5,-689.525 736,-699.525 743,-699.525"/>
</a>
</g>
<g id="a_edge8&#45;label"><a xlink:title="bufio.ScanLines &#45;&gt; runtime.indexbytebody (50ms)">
<text text-anchor="middle" x="756.5" y="-711.8" font-family="Times,serif" font-size="14.00"> 50ms</text>
</a>
</g>
</g>
<!-- N6 -->
<g id="node7" class="node"><title>N6</title>
<g id="a_node7"><a xlink:title="github.com/mikefaille/goStockDemo/util.Float64frombytes3 (40ms)">
<polygon fill="#f8f8f8" stroke="black" points="380,-898 31,-898 31,-845 380,-845 380,-898"/>
<text text-anchor="middle" x="205.5" y="-882.8" font-family="Times,serif" font-size="14.00">github.com/mikefaille/goStockDemo/util.Float64frombytes3</text>
<text text-anchor="middle" x="205.5" y="-867.8" font-family="Times,serif" font-size="14.00">10ms(3.12%)</text>
<text text-anchor="middle" x="205.5" y="-852.8" font-family="Times,serif" font-size="14.00">of 40ms(12.50%)</text>
</a>
</g>
</g>
<!-- N37 -->
<g id="node38" class="node"><title>N37</title>
<g id="a_node38"><a xlink:title="strconv.ParseFloat (30ms)">
<polygon fill="#f8f8f8" stroke="black" points="244,-785.5 167,-785.5 167,-749.5 244,-749.5 244,-785.5"/>
<text text-anchor="middle" x="205.5" y="-770.1" font-family="Times,serif" font-size="8.00">strconv.ParseFloat</text>
<text text-anchor="middle" x="205.5" y="-761.1" font-family="Times,serif" font-size="8.00">0 of 30ms(9.38%)</text>
</a>
</g>
</g>
<!-- N6&#45;&gt;N37 -->
<g id="edge17" class="edge"><title>N6&#45;&gt;N37</title>
<g id="a_edge17"><a xlink:title="github.com/mikefaille/goStockDemo/util.Float64frombytes3 &#45;&gt; strconv.ParseFloat (30ms)">
<path fill="none" stroke="black" d="M205.5,-844.761C205.5,-829.849 205.5,-811.083 205.5,-795.897"/>
<polygon fill="black" stroke="black" points="209,-795.58 205.5,-785.58 202,-795.58 209,-795.58"/>
</a>
</g>
<g id="a_edge17&#45;label"><a xlink:title="github.com/mikefaille/goStockDemo/util.Float64frombytes3 &#45;&gt; strconv.ParseFloat (30ms)">
<text text-anchor="middle" x="222.5" y="-815.8" font-family="Times,serif" font-size="14.00"> 30ms</text>
</a>
</g>
</g>
<!-- N7 -->
<g id="node8" class="node"><title>N7</title>
<g id="a_node8"><a xlink:title="main.main.func3 (30ms)">
<polygon fill="#f8f8f8" stroke="black" points="680.5,-1002 570.5,-1002 570.5,-949 680.5,-949 680.5,-1002"/>
<text text-anchor="middle" x="625.5" y="-986.8" font-family="Times,serif" font-size="14.00">main.main.func3</text>
<text text-anchor="middle" x="625.5" y="-971.8" font-family="Times,serif" font-size="14.00">10ms(3.12%)</text>
<text text-anchor="middle" x="625.5" y="-956.8" font-family="Times,serif" font-size="14.00">of 30ms(9.38%)</text>
</a>
</g>
</g>
<!-- N9 -->
<g id="node10" class="node"><title>N9</title>
<g id="a_node10"><a xlink:title="runtime.chanrecv2 (60ms)">
<polygon fill="#f8f8f8" stroke="black" points="517,-898 398,-898 398,-845 517,-845 517,-898"/>
<text text-anchor="middle" x="457.5" y="-882.8" font-family="Times,serif" font-size="14.00">runtime.chanrecv2</text>
<text text-anchor="middle" x="457.5" y="-867.8" font-family="Times,serif" font-size="14.00">10ms(3.12%)</text>
<text text-anchor="middle" x="457.5" y="-852.8" font-family="Times,serif" font-size="14.00">of 60ms(18.75%)</text>
</a>
</g>
</g>
<!-- N7&#45;&gt;N9 -->
<g id="edge21" class="edge"><title>N7&#45;&gt;N9</title>
<g id="a_edge21"><a xlink:title="main.main.func3 &#45;&gt; runtime.chanrecv2 (20ms)">
<path fill="none" stroke="black" d="M607.279,-948.857C598.187,-937.546 586.385,-924.842 573.5,-916 572.281,-915.164 550.711,-907.021 526.495,-898.003"/>
<polygon fill="black" stroke="black" points="527.715,-894.722 517.122,-894.517 525.275,-901.283 527.715,-894.722"/>
</a>
</g>
<g id="a_edge21&#45;label"><a xlink:title="main.main.func3 &#45;&gt; runtime.chanrecv2 (20ms)">
<text text-anchor="middle" x="607.5" y="-919.8" font-family="Times,serif" font-size="14.00"> 20ms</text>
</a>
</g>
</g>
<!-- N8 -->
<g id="node9" class="node"><title>N8</title>
<g id="a_node9"><a xlink:title="runtime.chanrecv (50ms)">
<polygon fill="#f8f8f8" stroke="black" points="500,-794 387,-794 387,-741 500,-741 500,-794"/>
<text text-anchor="middle" x="443.5" y="-778.8" font-family="Times,serif" font-size="14.00">runtime.chanrecv</text>
<text text-anchor="middle" x="443.5" y="-763.8" font-family="Times,serif" font-size="14.00">10ms(3.12%)</text>
<text text-anchor="middle" x="443.5" y="-748.8" font-family="Times,serif" font-size="14.00">of 50ms(15.62%)</text>
</a>
</g>
</g>
<!-- N29 -->
<g id="node30" class="node"><title>N29</title>
<g id="a_node30"><a xlink:title="runtime.lock (80ms)">
<polygon fill="#f8f8f8" stroke="black" points="417.5,-681.5 339.5,-681.5 339.5,-645.5 417.5,-645.5 417.5,-681.5"/>
<text text-anchor="middle" x="378.5" y="-666.1" font-family="Times,serif" font-size="8.00">runtime.lock</text>
<text text-anchor="middle" x="378.5" y="-657.1" font-family="Times,serif" font-size="8.00">0 of 80ms(25.00%)</text>
</a>
</g>
</g>
<!-- N8&#45;&gt;N29 -->
<g id="edge14" class="edge"><title>N8&#45;&gt;N29</title>
<g id="a_edge14"><a xlink:title="runtime.chanrecv &#45;&gt; runtime.lock (40ms)">
<path fill="none" stroke="black" d="M401.603,-740.908C395.731,-735.659 390.384,-729.669 386.5,-723 381.101,-713.73 378.779,-702.264 377.921,-691.945"/>
<polygon fill="black" stroke="black" points="381.409,-691.591 377.489,-681.748 374.415,-691.887 381.409,-691.591"/>
</a>
</g>
<g id="a_edge14&#45;label"><a xlink:title="runtime.chanrecv &#45;&gt; runtime.lock (40ms)">
<text text-anchor="middle" x="403.5" y="-711.8" font-family="Times,serif" font-size="14.00"> 40ms</text>
</a>
</g>
</g>
<!-- N9&#45;&gt;N8 -->
<g id="edge9" class="edge"><title>N9&#45;&gt;N8</title>
<g id="a_edge9"><a xlink:title="runtime.chanrecv2 &#45;&gt; runtime.chanrecv (50ms)">
<path fill="none" stroke="black" d="M453.967,-844.761C452.293,-832.56 450.264,-817.779 448.44,-804.49"/>
<polygon fill="black" stroke="black" points="451.859,-803.662 447.032,-794.231 444.924,-804.614 451.859,-803.662"/>
</a>
</g>
<g id="a_edge9&#45;label"><a xlink:title="runtime.chanrecv2 &#45;&gt; runtime.chanrecv (50ms)">
<text text-anchor="middle" x="468.5" y="-815.8" font-family="Times,serif" font-size="14.00"> 50ms</text>
</a>
</g>
</g>
<!-- N10 -->
<g id="node11" class="node"><title>N10</title>
<g id="a_node11"><a xlink:title="runtime.chansend (70ms)">
<polygon fill="#f8f8f8" stroke="black" points="631,-794 518,-794 518,-741 631,-741 631,-794"/>
<text text-anchor="middle" x="574.5" y="-778.8" font-family="Times,serif" font-size="14.00">runtime.chansend</text>
<text text-anchor="middle" x="574.5" y="-763.8" font-family="Times,serif" font-size="14.00">10ms(3.12%)</text>
<text text-anchor="middle" x="574.5" y="-748.8" font-family="Times,serif" font-size="14.00">of 70ms(21.88%)</text>
</a>
</g>
</g>
<!-- N10&#45;&gt;N29 -->
<g id="edge15" class="edge"><title>N10&#45;&gt;N29</title>
<g id="a_edge15"><a xlink:title="runtime.chansend &#45;&gt; runtime.lock (40ms)">
<path fill="none" stroke="black" d="M517.81,-741.616C505.094,-735.738 491.746,-729.332 479.5,-723 457.745,-711.752 434.02,-698.085 415.034,-686.791"/>
<polygon fill="black" stroke="black" points="416.775,-683.754 406.397,-681.623 413.181,-689.761 416.775,-683.754"/>
</a>
</g>
<g id="a_edge15&#45;label"><a xlink:title="runtime.chansend &#45;&gt; runtime.lock (40ms)">
<text text-anchor="middle" x="496.5" y="-711.8" font-family="Times,serif" font-size="14.00"> 40ms</text>
</a>
</g>
</g>
<!-- N35 -->
<g id="node36" class="node"><title>N35</title>
<g id="a_node36"><a xlink:title="runtime.typedmemmove (10ms)">
<polygon fill="#f8f8f8" stroke="black" points="621.5,-681.5 527.5,-681.5 527.5,-645.5 621.5,-645.5 621.5,-681.5"/>
<text text-anchor="middle" x="574.5" y="-666.1" font-family="Times,serif" font-size="8.00">runtime.typedmemmove</text>
<text text-anchor="middle" x="574.5" y="-657.1" font-family="Times,serif" font-size="8.00">0 of 10ms(3.12%)</text>
</a>
</g>
</g>
<!-- N10&#45;&gt;N35 -->
<g id="edge28" class="edge"><title>N10&#45;&gt;N35</title>
<g id="a_edge28"><a xlink:title="runtime.chansend &#45;&gt; runtime.typedmemmove (10ms)">
<path fill="none" stroke="black" d="M574.5,-740.761C574.5,-725.849 574.5,-707.083 574.5,-691.897"/>
<polygon fill="black" stroke="black" points="578,-691.58 574.5,-681.58 571,-691.58 578,-691.58"/>
</a>
</g>
<g id="a_edge28&#45;label"><a xlink:title="runtime.chansend &#45;&gt; runtime.typedmemmove (10ms)">
<text text-anchor="middle" x="591.5" y="-711.8" font-family="Times,serif" font-size="14.00"> 10ms</text>
</a>
</g>
</g>
<!-- N36 -->
<g id="node37" class="node"><title>N36</title>
<g id="a_node37"><a xlink:title="runtime.unlock (10ms)">
<polygon fill="#f8f8f8" stroke="black" points="509.5,-681.5 435.5,-681.5 435.5,-645.5 509.5,-645.5 509.5,-681.5"/>
<text text-anchor="middle" x="472.5" y="-666.1" font-family="Times,serif" font-size="8.00">runtime.unlock</text>
<text text-anchor="middle" x="472.5" y="-657.1" font-family="Times,serif" font-size="8.00">0 of 10ms(3.12%)</text>
</a>
</g>
</g>
<!-- N10&#45;&gt;N36 -->
<g id="edge29" class="edge"><title>N10&#45;&gt;N36</title>
<g id="a_edge29"><a xlink:title="runtime.chansend &#45;&gt; runtime.unlock (10ms)">
<path fill="none" stroke="black" d="M548.761,-740.761C532.836,-724.836 512.514,-704.514 496.853,-688.853"/>
<polygon fill="black" stroke="black" points="499.126,-686.176 489.58,-681.58 494.176,-691.126 499.126,-686.176"/>
</a>
</g>
<g id="a_edge29&#45;label"><a xlink:title="runtime.chansend &#45;&gt; runtime.unlock (10ms)">
<text text-anchor="middle" x="547.5" y="-711.8" font-family="Times,serif" font-size="14.00"> 10ms</text>
</a>
</g>
</g>
<!-- N11 -->
<g id="node12" class="node"><title>N11</title>
<g id="a_node12"><a xlink:title="runtime.mSpan_Sweep.func1 (10ms)">
<polygon fill="#f8f8f8" stroke="black" points="1286,-38 1107,-38 1107,-0 1286,-0 1286,-38"/>
<text text-anchor="middle" x="1196.5" y="-22.8" font-family="Times,serif" font-size="14.00">runtime.mSpan_Sweep.func1</text>
<text text-anchor="middle" x="1196.5" y="-7.8" font-family="Times,serif" font-size="14.00">10ms(3.12%)</text>
</a>
</g>
</g>
<!-- N12 -->
<g id="node13" class="node"><title>N12</title>
<g id="a_node13"><a xlink:title="runtime.makeslice (60ms)">
<polygon fill="#f8f8f8" stroke="black" points="944.5,-898 826.5,-898 826.5,-845 944.5,-845 944.5,-898"/>
<text text-anchor="middle" x="885.5" y="-882.8" font-family="Times,serif" font-size="14.00">runtime.makeslice</text>
<text text-anchor="middle" x="885.5" y="-867.8" font-family="Times,serif" font-size="14.00">10ms(3.12%)</text>
<text text-anchor="middle" x="885.5" y="-852.8" font-family="Times,serif" font-size="14.00">of 60ms(18.75%)</text>
</a>
</g>
</g>
<!-- N16 -->
<g id="node17" class="node"><title>N16</title>
<g id="a_node17"><a xlink:title="runtime.newarray (50ms)">
<polygon fill="#f8f8f8" stroke="black" points="1032,-794 919,-794 919,-741 1032,-741 1032,-794"/>
<text text-anchor="middle" x="975.5" y="-778.8" font-family="Times,serif" font-size="14.00">runtime.newarray</text>
<text text-anchor="middle" x="975.5" y="-763.8" font-family="Times,serif" font-size="14.00">10ms(3.12%)</text>
<text text-anchor="middle" x="975.5" y="-748.8" font-family="Times,serif" font-size="14.00">of 50ms(15.62%)</text>
</a>
</g>
</g>
<!-- N12&#45;&gt;N16 -->
<g id="edge10" class="edge"><title>N12&#45;&gt;N16</title>
<g id="a_edge10"><a xlink:title="runtime.makeslice &#45;&gt; runtime.newarray (50ms)">
<path fill="none" stroke="black" d="M908.211,-844.761C919.722,-831.715 933.837,-815.718 946.162,-801.75"/>
<polygon fill="black" stroke="black" points="948.805,-804.045 952.796,-794.231 943.556,-799.413 948.805,-804.045"/>
</a>
</g>
<g id="a_edge10&#45;label"><a xlink:title="runtime.makeslice &#45;&gt; runtime.newarray (50ms)">
<text text-anchor="middle" x="953.5" y="-815.8" font-family="Times,serif" font-size="14.00"> 50ms</text>
</a>
</g>
</g>
<!-- N13 -->
<g id="node14" class="node"><title>N13</title>
<g id="a_node14"><a xlink:title="runtime.mallocgc (40ms)">
<polygon fill="#f8f8f8" stroke="black" points="1069,-690 956,-690 956,-637 1069,-637 1069,-690"/>
<text text-anchor="middle" x="1012.5" y="-674.8" font-family="Times,serif" font-size="14.00">runtime.mallocgc</text>
<text text-anchor="middle" x="1012.5" y="-659.8" font-family="Times,serif" font-size="14.00">10ms(3.12%)</text>
<text text-anchor="middle" x="1012.5" y="-644.8" font-family="Times,serif" font-size="14.00">of 40ms(12.50%)</text>
</a>
</g>
</g>
<!-- N14 -->
<g id="node15" class="node"><title>N14</title>
<g id="a_node15"><a xlink:title="runtime.memclr (10ms)">
<polygon fill="#f8f8f8" stroke="black" points="995.5,-575 889.5,-575 889.5,-537 995.5,-537 995.5,-575"/>
<text text-anchor="middle" x="942.5" y="-559.8" font-family="Times,serif" font-size="14.00">runtime.memclr</text>
<text text-anchor="middle" x="942.5" y="-544.8" font-family="Times,serif" font-size="14.00">10ms(3.12%)</text>
</a>
</g>
</g>
<!-- N13&#45;&gt;N14 -->
<g id="edge34" class="edge"><title>N13&#45;&gt;N14</title>
<g id="a_edge34"><a xlink:title="runtime.mallocgc &#45;&gt; runtime.memclr (10ms)">
<path fill="none" stroke="black" d="M995.555,-636.961C984.835,-620.805 971.003,-599.958 960.15,-583.602"/>
<polygon fill="black" stroke="black" points="962.912,-581.433 954.466,-575.035 957.079,-585.303 962.912,-581.433"/>
</a>
</g>
<g id="a_edge34&#45;label"><a xlink:title="runtime.mallocgc &#45;&gt; runtime.memclr (10ms)">
<text text-anchor="middle" x="999.5" y="-607.8" font-family="Times,serif" font-size="14.00"> 10ms</text>
</a>
</g>
</g>
<!-- N17 -->
<g id="node18" class="node"><title>N17</title>
<g id="a_node18"><a xlink:title="runtime.prefetchnta (10ms)">
<polygon fill="#f8f8f8" stroke="black" points="1137.5,-575 1013.5,-575 1013.5,-537 1137.5,-537 1137.5,-575"/>
<text text-anchor="middle" x="1075.5" y="-559.8" font-family="Times,serif" font-size="14.00">runtime.prefetchnta</text>
<text text-anchor="middle" x="1075.5" y="-544.8" font-family="Times,serif" font-size="14.00">10ms(3.12%)</text>
</a>
</g>
</g>
<!-- N13&#45;&gt;N17 -->
<g id="edge35" class="edge"><title>N13&#45;&gt;N17</title>
<g id="a_edge35"><a xlink:title="runtime.mallocgc &#45;&gt; runtime.prefetchnta (10ms)">
<path fill="none" stroke="black" d="M1027.75,-636.961C1037.31,-620.954 1049.62,-600.344 1059.34,-584.057"/>
<polygon fill="black" stroke="black" points="1062.61,-585.415 1064.73,-575.035 1056.6,-581.826 1062.61,-585.415"/>
</a>
</g>
<g id="a_edge35&#45;label"><a xlink:title="runtime.mallocgc &#45;&gt; runtime.prefetchnta (10ms)">
<text text-anchor="middle" x="1063.5" y="-607.8" font-family="Times,serif" font-size="14.00"> 10ms</text>
</a>
</g>
</g>
<!-- N34 -->
<g id="node35" class="node"><title>N34</title>
<g id="a_node35"><a xlink:title="runtime.systemstack (10ms)">
<polygon fill="#f8f8f8" stroke="black" points="1237.5,-574 1155.5,-574 1155.5,-538 1237.5,-538 1237.5,-574"/>
<text text-anchor="middle" x="1196.5" y="-558.6" font-family="Times,serif" font-size="8.00">runtime.systemstack</text>
<text text-anchor="middle" x="1196.5" y="-549.6" font-family="Times,serif" font-size="8.00">0 of 10ms(3.12%)</text>
</a>
</g>
</g>
<!-- N13&#45;&gt;N34 -->
<g id="edge36" class="edge"><title>N13&#45;&gt;N34</title>
<g id="a_edge36"><a xlink:title="runtime.mallocgc &#45;&gt; runtime.systemstack (10ms)">
<path fill="none" stroke="black" d="M1057.52,-636.902C1083.54,-622.077 1116.9,-603.035 1146.5,-586 1150.37,-583.772 1154.41,-581.442 1158.44,-579.113"/>
<polygon fill="black" stroke="black" points="1160.27,-582.095 1167.17,-574.055 1156.76,-576.037 1160.27,-582.095"/>
</a>
</g>
<g id="a_edge36&#45;label"><a xlink:title="runtime.mallocgc &#45;&gt; runtime.systemstack (10ms)">
<text text-anchor="middle" x="1130.5" y="-607.8" font-family="Times,serif" font-size="14.00"> 10ms</text>
</a>
</g>
</g>
<!-- N15 -->
<g id="node16" class="node"><title>N15</title>
<g id="a_node16"><a xlink:title="runtime.memmove (10ms)">
<polygon fill="#f8f8f8" stroke="black" points="635.5,-575 513.5,-575 513.5,-537 635.5,-537 635.5,-575"/>
<text text-anchor="middle" x="574.5" y="-559.8" font-family="Times,serif" font-size="14.00">runtime.memmove</text>
<text text-anchor="middle" x="574.5" y="-544.8" font-family="Times,serif" font-size="14.00">10ms(3.12%)</text>
</a>
</g>
</g>
<!-- N16&#45;&gt;N13 -->
<g id="edge16" class="edge"><title>N16&#45;&gt;N13</title>
<g id="a_edge16"><a xlink:title="runtime.newarray &#45;&gt; runtime.mallocgc (40ms)">
<path fill="none" stroke="black" d="M984.837,-740.761C989.35,-728.319 994.837,-713.193 999.73,-699.703"/>
<polygon fill="black" stroke="black" points="1003.05,-700.825 1003.17,-690.231 996.466,-698.438 1003.05,-700.825"/>
</a>
</g>
<g id="a_edge16&#45;label"><a xlink:title="runtime.newarray &#45;&gt; runtime.mallocgc (40ms)">
<text text-anchor="middle" x="1013.5" y="-711.8" font-family="Times,serif" font-size="14.00"> 40ms</text>
</a>
</g>
</g>
<!-- N18 -->
<g id="node19" class="node"><title>N18</title>
<g id="a_node19"><a xlink:title="strconv.atof64exact (10ms)">
<polygon fill="#f8f8f8" stroke="black" points="123,-575 0,-575 0,-537 123,-537 123,-575"/>
<text text-anchor="middle" x="61.5" y="-559.8" font-family="Times,serif" font-size="14.00">strconv.atof64exact</text>
<text text-anchor="middle" x="61.5" y="-544.8" font-family="Times,serif" font-size="14.00">10ms(3.12%)</text>
</a>
</g>
</g>
<!-- N19 -->
<g id="node20" class="node"><title>N19</title>
<g id="a_node20"><a xlink:title="syscall.Syscall (10ms)">
<polygon fill="#f8f8f8" stroke="black" points="882.5,-214 786.5,-214 786.5,-176 882.5,-176 882.5,-214"/>
<text text-anchor="middle" x="834.5" y="-198.8" font-family="Times,serif" font-size="14.00">syscall.Syscall</text>
<text text-anchor="middle" x="834.5" y="-183.8" font-family="Times,serif" font-size="14.00">10ms(3.12%)</text>
</a>
</g>
</g>
<!-- N21 -->
<g id="node22" class="node"><title>N21</title>
<g id="a_node22"><a xlink:title="bufio.(*Reader).fill (10ms)">
<polygon fill="#f8f8f8" stroke="black" points="937.5,-681.5 857.5,-681.5 857.5,-645.5 937.5,-645.5 937.5,-681.5"/>
<text text-anchor="middle" x="897.5" y="-666.1" font-family="Times,serif" font-size="8.00">bufio.(*Reader).fill</text>
<text text-anchor="middle" x="897.5" y="-657.1" font-family="Times,serif" font-size="8.00">0 of 10ms(3.12%)</text>
</a>
</g>
</g>
<!-- N20&#45;&gt;N21 -->
<g id="edge23" class="edge"><title>N20&#45;&gt;N21</title>
<g id="a_edge23"><a xlink:title="bufio.(*Reader).Read &#45;&gt; bufio.(*Reader).fill (10ms)">
<path fill="none" stroke="black" d="M864.285,-749.197C870.529,-733.275 879.883,-709.423 887.075,-691.083"/>
<polygon fill="black" stroke="black" points="890.422,-692.135 890.815,-681.547 883.905,-689.579 890.422,-692.135"/>
</a>
</g>
<g id="a_edge23&#45;label"><a xlink:title="bufio.(*Reader).Read &#45;&gt; bufio.(*Reader).fill (10ms)">
<text text-anchor="middle" x="897.5" y="-711.8" font-family="Times,serif" font-size="14.00"> 10ms</text>
</a>
</g>
</g>
<!-- N24 -->
<g id="node25" class="node"><title>N24</title>
<g id="a_node25"><a xlink:title="os.(*File).Read (10ms)">
<polygon fill="#f8f8f8" stroke="black" points="871.5,-574 797.5,-574 797.5,-538 871.5,-538 871.5,-574"/>
<text text-anchor="middle" x="834.5" y="-558.6" font-family="Times,serif" font-size="8.00">os.(*File).Read</text>
<text text-anchor="middle" x="834.5" y="-549.6" font-family="Times,serif" font-size="8.00">0 of 10ms(3.12%)</text>
</a>
</g>
</g>
<!-- N21&#45;&gt;N24 -->
<g id="edge24" class="edge"><title>N21&#45;&gt;N24</title>
<g id="a_edge24"><a xlink:title="bufio.(*Reader).fill &#45;&gt; os.(*File).Read (10ms)">
<path fill="none" stroke="black" d="M887.097,-645.079C876.96,-628.103 861.427,-602.092 849.866,-582.732"/>
<polygon fill="black" stroke="black" points="852.842,-580.888 844.71,-574.097 846.832,-584.477 852.842,-580.888"/>
</a>
</g>
<g id="a_edge24&#45;label"><a xlink:title="bufio.(*Reader).fill &#45;&gt; os.(*File).Read (10ms)">
<text text-anchor="middle" x="887.5" y="-607.8" font-family="Times,serif" font-size="14.00"> 10ms</text>
</a>
</g>
</g>
<!-- N22 -->
<g id="node23" class="node"><title>N22</title>
<g id="a_node23"><a xlink:title="main.main.func1 (120ms)">
<polygon fill="#f8f8f8" stroke="black" points="552.5,-993.5 470.5,-993.5 470.5,-957.5 552.5,-957.5 552.5,-993.5"/>
<text text-anchor="middle" x="511.5" y="-978.1" font-family="Times,serif" font-size="8.00">main.main.func1</text>
<text text-anchor="middle" x="511.5" y="-969.1" font-family="Times,serif" font-size="8.00">0 of 120ms(37.50%)</text>
</a>
</g>
</g>
<!-- N22&#45;&gt;N6 -->
<g id="edge11" class="edge"><title>N22&#45;&gt;N6</title>
<g id="a_edge11"><a xlink:title="main.main.func1 &#45;&gt; github.com/mikefaille/goStockDemo/util.Float64frombytes3 (40ms)">
<path fill="none" stroke="black" d="M470.231,-960.744C424.722,-945.574 350.213,-920.738 291.817,-901.272"/>
<polygon fill="black" stroke="black" points="292.815,-897.916 282.222,-898.074 290.602,-904.557 292.815,-897.916"/>
</a>
</g>
<g id="a_edge11&#45;label"><a xlink:title="main.main.func1 &#45;&gt; github.com/mikefaille/goStockDemo/util.Float64frombytes3 (40ms)">
<text text-anchor="middle" x="394.5" y="-919.8" font-family="Times,serif" font-size="14.00"> 40ms</text>
</a>
</g>
</g>
<!-- N22&#45;&gt;N9 -->
<g id="edge12" class="edge"><title>N22&#45;&gt;N9</title>
<g id="a_edge12"><a xlink:title="main.main.func1 &#45;&gt; runtime.chanrecv2 (40ms)">
<path fill="none" stroke="black" d="M490.483,-957.337C482.781,-949.994 474.689,-940.844 469.5,-931 465.802,-923.985 463.243,-915.94 461.472,-908.107"/>
<polygon fill="black" stroke="black" points="464.865,-907.211 459.568,-898.035 457.987,-908.511 464.865,-907.211"/>
</a>
</g>
<g id="a_edge12&#45;label"><a xlink:title="main.main.func1 &#45;&gt; runtime.chanrecv2 (40ms)">
<text text-anchor="middle" x="486.5" y="-919.8" font-family="Times,serif" font-size="14.00"> 40ms</text>
</a>
</g>
</g>
<!-- N26 -->
<g id="node27" class="node"><title>N26</title>
<g id="a_node27"><a xlink:title="runtime.chansend1 (70ms)">
<polygon fill="#f8f8f8" stroke="black" points="613.5,-889.5 535.5,-889.5 535.5,-853.5 613.5,-853.5 613.5,-889.5"/>
<text text-anchor="middle" x="574.5" y="-874.1" font-family="Times,serif" font-size="8.00">runtime.chansend1</text>
<text text-anchor="middle" x="574.5" y="-865.1" font-family="Times,serif" font-size="8.00">0 of 70ms(21.88%)</text>
</a>
</g>
</g>
<!-- N22&#45;&gt;N26 -->
<g id="edge13" class="edge"><title>N22&#45;&gt;N26</title>
<g id="a_edge13"><a xlink:title="main.main.func1 &#45;&gt; runtime.chansend1 (40ms)">
<path fill="none" stroke="black" d="M518.474,-957.31C523.622,-945.352 531.16,-929.244 539.5,-916 543.387,-909.828 548.013,-903.525 552.607,-897.703"/>
<polygon fill="black" stroke="black" points="555.619,-899.548 559.227,-889.587 550.194,-895.124 555.619,-899.548"/>
</a>
</g>
<g id="a_edge13&#45;label"><a xlink:title="main.main.func1 &#45;&gt; runtime.chansend1 (40ms)">
<text text-anchor="middle" x="556.5" y="-919.8" font-family="Times,serif" font-size="14.00"> 40ms</text>
</a>
</g>
</g>
<!-- N23 -->
<g id="node24" class="node"><title>N23</title>
<g id="a_node24"><a xlink:title="main.main.func2 (170ms)">
<polygon fill="#f8f8f8" stroke="black" points="780.5,-993.5 698.5,-993.5 698.5,-957.5 780.5,-957.5 780.5,-993.5"/>
<text text-anchor="middle" x="739.5" y="-978.1" font-family="Times,serif" font-size="8.00">main.main.func2</text>
<text text-anchor="middle" x="739.5" y="-969.1" font-family="Times,serif" font-size="8.00">0 of 170ms(53.12%)</text>
</a>
</g>
</g>
<!-- N23&#45;&gt;N4 -->
<g id="edge3" class="edge"><title>N23&#45;&gt;N4</title>
<g id="a_edge3"><a xlink:title="main.main.func2 &#45;&gt; bufio.(*Scanner).Scan (80ms)">
<path fill="none" stroke="black" stroke-width="2" d="M739.5,-957.197C739.5,-943.956 739.5,-925.229 739.5,-908.75"/>
<polygon fill="black" stroke="black" stroke-width="2" points="743,-908.325 739.5,-898.325 736,-908.325 743,-908.325"/>
</a>
</g>
<g id="a_edge3&#45;label"><a xlink:title="main.main.func2 &#45;&gt; bufio.(*Scanner).Scan (80ms)">
<text text-anchor="middle" x="756.5" y="-919.8" font-family="Times,serif" font-size="14.00"> 80ms</text>
</a>
</g>
</g>
<!-- N23&#45;&gt;N12 -->
<g id="edge7" class="edge"><title>N23&#45;&gt;N12</title>
<g id="a_edge7"><a xlink:title="main.main.func2 &#45;&gt; runtime.makeslice (60ms)">
<path fill="none" stroke="black" d="M763.937,-957.427C784.796,-942.855 815.336,-921.519 840.586,-903.878"/>
<polygon fill="black" stroke="black" points="842.731,-906.649 848.924,-898.053 838.722,-900.911 842.731,-906.649"/>
</a>
</g>
<g id="a_edge7&#45;label"><a xlink:title="main.main.func2 &#45;&gt; runtime.makeslice (60ms)">
<text text-anchor="middle" x="838.5" y="-919.8" font-family="Times,serif" font-size="14.00"> 60ms</text>
</a>
</g>
</g>
<!-- N23&#45;&gt;N26 -->
<g id="edge18" class="edge"><title>N23&#45;&gt;N26</title>
<g id="a_edge18"><a xlink:title="main.main.func2 &#45;&gt; runtime.chansend1 (30ms)">
<path fill="none" stroke="black" d="M711.883,-957.427C684.161,-940.291 641.309,-913.8 610.841,-894.966"/>
<polygon fill="black" stroke="black" points="612.554,-891.909 602.207,-889.628 608.873,-897.864 612.554,-891.909"/>
</a>
</g>
<g id="a_edge18&#45;label"><a xlink:title="main.main.func2 &#45;&gt; runtime.chansend1 (30ms)">
<text text-anchor="middle" x="684.5" y="-919.8" font-family="Times,serif" font-size="14.00"> 30ms</text>
</a>
</g>
</g>
<!-- N25 -->
<g id="node26" class="node"><title>N25</title>
<g id="a_node26"><a xlink:title="os.(*File).read (10ms)">
<polygon fill="#f8f8f8" stroke="black" points="871.5,-475 797.5,-475 797.5,-439 871.5,-439 871.5,-475"/>
<text text-anchor="middle" x="834.5" y="-459.6" font-family="Times,serif" font-size="8.00">os.(*File).read</text>
<text text-anchor="middle" x="834.5" y="-450.6" font-family="Times,serif" font-size="8.00">0 of 10ms(3.12%)</text>
</a>
</g>
</g>
<!-- N24&#45;&gt;N25 -->
<g id="edge26" class="edge"><title>N24&#45;&gt;N25</title>
<g id="a_edge26"><a xlink:title="os.(*File).Read &#45;&gt; os.(*File).read (10ms)">
<path fill="none" stroke="black" d="M834.5,-537.658C834.5,-523.175 834.5,-502.263 834.5,-485.499"/>
<polygon fill="black" stroke="black" points="838,-485.191 834.5,-475.192 831,-485.192 838,-485.191"/>
</a>
</g>
<g id="a_edge26&#45;label"><a xlink:title="os.(*File).Read &#45;&gt; os.(*File).read (10ms)">
<text text-anchor="middle" x="851.5" y="-496.8" font-family="Times,serif" font-size="14.00"> 10ms</text>
</a>
</g>
</g>
<!-- N39 -->
<g id="node40" class="node"><title>N39</title>
<g id="a_node40"><a xlink:title="syscall.Read (10ms)">
<polygon fill="#f8f8f8" stroke="black" points="871.5,-388 797.5,-388 797.5,-352 871.5,-352 871.5,-388"/>
<text text-anchor="middle" x="834.5" y="-372.6" font-family="Times,serif" font-size="8.00">syscall.Read</text>
<text text-anchor="middle" x="834.5" y="-363.6" font-family="Times,serif" font-size="8.00">0 of 10ms(3.12%)</text>
</a>
</g>
</g>
<!-- N25&#45;&gt;N39 -->
<g id="edge27" class="edge"><title>N25&#45;&gt;N39</title>
<g id="a_edge27"><a xlink:title="os.(*File).read &#45;&gt; syscall.Read (10ms)">
<path fill="none" stroke="black" d="M834.5,-438.799C834.5,-427.163 834.5,-411.548 834.5,-398.237"/>
<polygon fill="black" stroke="black" points="838,-398.175 834.5,-388.175 831,-398.175 838,-398.175"/>
</a>
</g>
<g id="a_edge27&#45;label"><a xlink:title="os.(*File).read &#45;&gt; syscall.Read (10ms)">
<text text-anchor="middle" x="851.5" y="-409.8" font-family="Times,serif" font-size="14.00"> 10ms</text>
</a>
</g>
</g>
<!-- N26&#45;&gt;N10 -->
<g id="edge5" class="edge"><title>N26&#45;&gt;N10</title>
<g id="a_edge5"><a xlink:title="runtime.chansend1 &#45;&gt; runtime.chansend (70ms)">
<path fill="none" stroke="black" stroke-width="2" d="M574.5,-853.197C574.5,-839.956 574.5,-821.229 574.5,-804.75"/>
<polygon fill="black" stroke="black" stroke-width="2" points="578,-804.325 574.5,-794.325 571,-804.325 578,-804.325"/>
</a>
</g>
<g id="a_edge5&#45;label"><a xlink:title="runtime.chansend1 &#45;&gt; runtime.chansend (70ms)">
<text text-anchor="middle" x="591.5" y="-815.8" font-family="Times,serif" font-size="14.00"> 70ms</text>
</a>
</g>
</g>
<!-- N27 -->
<g id="node28" class="node"><title>N27</title>
<g id="a_node28"><a xlink:title="runtime.goexit (320ms)">
<polygon fill="#f8f8f8" stroke="black" points="777.5,-1127.5 701.5,-1127.5 701.5,-1091.5 777.5,-1091.5 777.5,-1127.5"/>
<text text-anchor="middle" x="739.5" y="-1112.1" font-family="Times,serif" font-size="8.00">runtime.goexit</text>
<text text-anchor="middle" x="739.5" y="-1103.1" font-family="Times,serif" font-size="8.00">0 of 320ms(100%)</text>
</a>
</g>
</g>
<!-- N27&#45;&gt;N7 -->
<g id="edge19" class="edge"><title>N27&#45;&gt;N7</title>
<g id="a_edge19"><a xlink:title="runtime.goexit &#45;&gt; main.main.func3 (30ms)">
<path fill="none" stroke="black" d="M728.932,-1091.42C720.495,-1078.26 708.045,-1059.86 695.5,-1045 685.063,-1032.64 672.714,-1020 661.315,-1009"/>
<polygon fill="black" stroke="black" points="663.648,-1006.39 653.992,-1002.03 658.822,-1011.46 663.648,-1006.39"/>
</a>
</g>
<g id="a_edge19&#45;label"><a xlink:title="runtime.goexit &#45;&gt; main.main.func3 (30ms)">
<text text-anchor="middle" x="704.5" y="-1023.8" font-family="Times,serif" font-size="14.00"> 30ms</text>
</a>
</g>
</g>
<!-- N27&#45;&gt;N22 -->
<g id="edge2" class="edge"><title>N27&#45;&gt;N22</title>
<g id="a_edge2"><a xlink:title="runtime.goexit &#45;&gt; main.main.func1 (120ms)">
<path fill="none" stroke="black" stroke-width="2" d="M732.458,-1091.5C725.389,-1076.69 713.026,-1055.93 695.5,-1045 670.326,-1029.3 657.833,-1043.8 629.5,-1035 597.418,-1025.04 591.576,-1016.97 561.5,-1002 558.965,-1000.74 556.36,-999.435 553.736,-998.114"/>
<polygon fill="black" stroke="black" stroke-width="2" points="555.307,-994.987 544.804,-993.601 552.15,-1001.23 555.307,-994.987"/>
</a>
</g>
<g id="a_edge2&#45;label"><a xlink:title="runtime.goexit &#45;&gt; main.main.func1 (120ms)">
<text text-anchor="middle" x="650" y="-1023.8" font-family="Times,serif" font-size="14.00"> 120ms</text>
</a>
</g>
</g>
<!-- N27&#45;&gt;N23 -->
<g id="edge1" class="edge"><title>N27&#45;&gt;N23</title>
<g id="a_edge1"><a xlink:title="runtime.goexit &#45;&gt; main.main.func2 (170ms)">
<path fill="none" stroke="black" stroke-width="3" d="M739.5,-1091.24C739.5,-1069.01 739.5,-1030.1 739.5,-1003.82"/>
<polygon fill="black" stroke="black" stroke-width="3" points="743,-1003.76 739.5,-993.761 736,-1003.76 743,-1003.76"/>
</a>
</g>
<g id="a_edge1&#45;label"><a xlink:title="runtime.goexit &#45;&gt; main.main.func2 (170ms)">
<text text-anchor="middle" x="760" y="-1023.8" font-family="Times,serif" font-size="14.00"> 170ms</text>
</a>
</g>
</g>
<!-- N28 -->
<g id="node29" class="node"><title>N28</title>
<g id="a_node29"><a xlink:title="runtime.heapBitsSweepSpan (10ms)">
<polygon fill="#f8f8f8" stroke="black" points="1251,-125 1142,-125 1142,-89 1251,-89 1251,-125"/>
<text text-anchor="middle" x="1196.5" y="-109.6" font-family="Times,serif" font-size="8.00">runtime.heapBitsSweepSpan</text>
<text text-anchor="middle" x="1196.5" y="-100.6" font-family="Times,serif" font-size="8.00">0 of 10ms(3.12%)</text>
</a>
</g>
</g>
<!-- N28&#45;&gt;N11 -->
<g id="edge30" class="edge"><title>N28&#45;&gt;N11</title>
<g id="a_edge30"><a xlink:title="runtime.heapBitsSweepSpan &#45;&gt; runtime.mSpan_Sweep.func1 (10ms)">
<path fill="none" stroke="black" d="M1196.5,-88.5966C1196.5,-77.0557 1196.5,-61.647 1196.5,-48.3573"/>
<polygon fill="black" stroke="black" points="1200,-48.2679 1196.5,-38.268 1193,-48.268 1200,-48.2679"/>
</a>
</g>
<g id="a_edge30&#45;label"><a xlink:title="runtime.heapBitsSweepSpan &#45;&gt; runtime.mSpan_Sweep.func1 (10ms)">
<text text-anchor="middle" x="1213.5" y="-59.8" font-family="Times,serif" font-size="14.00"> 10ms</text>
</a>
</g>
</g>
<!-- N29&#45;&gt;N1 -->
<g id="edge4" class="edge"><title>N29&#45;&gt;N1</title>
<g id="a_edge4"><a xlink:title="runtime.lock &#45;&gt; runtime.xchg (80ms)">
<path fill="none" stroke="black" stroke-width="2" d="M378.5,-645.079C378.5,-631.799 378.5,-612.991 378.5,-596.162"/>
<polygon fill="black" stroke="black" stroke-width="2" points="382,-596.007 378.5,-586.007 375,-596.007 382,-596.007"/>
</a>
</g>
<g id="a_edge4&#45;label"><a xlink:title="runtime.lock &#45;&gt; runtime.xchg (80ms)">
<text text-anchor="middle" x="395.5" y="-607.8" font-family="Times,serif" font-size="14.00"> 80ms</text>
</a>
</g>
</g>
<!-- N30 -->
<g id="node31" class="node"><title>N30</title>
<g id="a_node31"><a xlink:title="runtime.mCache_Refill (10ms)">
<polygon fill="#f8f8f8" stroke="black" points="1242.5,-388 1150.5,-388 1150.5,-352 1242.5,-352 1242.5,-388"/>
<text text-anchor="middle" x="1196.5" y="-372.6" font-family="Times,serif" font-size="8.00">runtime.mCache_Refill</text>
<text text-anchor="middle" x="1196.5" y="-363.6" font-family="Times,serif" font-size="8.00">0 of 10ms(3.12%)</text>
</a>
</g>
</g>
<!-- N31 -->
<g id="node32" class="node"><title>N31</title>
<g id="a_node32"><a xlink:title="runtime.mCentral_CacheSpan (10ms)">
<polygon fill="#f8f8f8" stroke="black" points="1253,-301 1140,-301 1140,-265 1253,-265 1253,-301"/>
<text text-anchor="middle" x="1196.5" y="-285.6" font-family="Times,serif" font-size="8.00">runtime.mCentral_CacheSpan</text>
<text text-anchor="middle" x="1196.5" y="-276.6" font-family="Times,serif" font-size="8.00">0 of 10ms(3.12%)</text>
</a>
</g>
</g>
<!-- N30&#45;&gt;N31 -->
<g id="edge31" class="edge"><title>N30&#45;&gt;N31</title>
<g id="a_edge31"><a xlink:title="runtime.mCache_Refill &#45;&gt; runtime.mCentral_CacheSpan (10ms)">
<path fill="none" stroke="black" d="M1196.5,-351.799C1196.5,-340.163 1196.5,-324.548 1196.5,-311.237"/>
<polygon fill="black" stroke="black" points="1200,-311.175 1196.5,-301.175 1193,-311.175 1200,-311.175"/>
</a>
</g>
<g id="a_edge31&#45;label"><a xlink:title="runtime.mCache_Refill &#45;&gt; runtime.mCentral_CacheSpan (10ms)">
<text text-anchor="middle" x="1213.5" y="-322.8" font-family="Times,serif" font-size="14.00"> 10ms</text>
</a>
</g>
</g>
<!-- N32 -->
<g id="node33" class="node"><title>N32</title>
<g id="a_node33"><a xlink:title="runtime.mSpan_Sweep (10ms)">
<polygon fill="#f8f8f8" stroke="black" points="1242,-213 1151,-213 1151,-177 1242,-177 1242,-213"/>
<text text-anchor="middle" x="1196.5" y="-197.6" font-family="Times,serif" font-size="8.00">runtime.mSpan_Sweep</text>
<text text-anchor="middle" x="1196.5" y="-188.6" font-family="Times,serif" font-size="8.00">0 of 10ms(3.12%)</text>
</a>
</g>
</g>
<!-- N31&#45;&gt;N32 -->
<g id="edge32" class="edge"><title>N31&#45;&gt;N32</title>
<g id="a_edge32"><a xlink:title="runtime.mCentral_CacheSpan &#45;&gt; runtime.mSpan_Sweep (10ms)">
<path fill="none" stroke="black" d="M1196.5,-264.597C1196.5,-252.746 1196.5,-236.817 1196.5,-223.292"/>
<polygon fill="black" stroke="black" points="1200,-223.084 1196.5,-213.084 1193,-223.084 1200,-223.084"/>
</a>
</g>
<g id="a_edge32&#45;label"><a xlink:title="runtime.mCentral_CacheSpan &#45;&gt; runtime.mSpan_Sweep (10ms)">
<text text-anchor="middle" x="1213.5" y="-235.8" font-family="Times,serif" font-size="14.00"> 10ms</text>
</a>
</g>
</g>
<!-- N32&#45;&gt;N28 -->
<g id="edge33" class="edge"><title>N32&#45;&gt;N28</title>
<g id="a_edge33"><a xlink:title="runtime.mSpan_Sweep &#45;&gt; runtime.heapBitsSweepSpan (10ms)">
<path fill="none" stroke="black" d="M1196.5,-176.597C1196.5,-164.746 1196.5,-148.817 1196.5,-135.292"/>
<polygon fill="black" stroke="black" points="1200,-135.084 1196.5,-125.084 1193,-135.084 1200,-135.084"/>
</a>
</g>
<g id="a_edge33&#45;label"><a xlink:title="runtime.mSpan_Sweep &#45;&gt; runtime.heapBitsSweepSpan (10ms)">
<text text-anchor="middle" x="1213.5" y="-146.8" font-family="Times,serif" font-size="14.00"> 10ms</text>
</a>
</g>
</g>
<!-- N33 -->
<g id="node34" class="node"><title>N33</title>
<g id="a_node34"><a xlink:title="runtime.mallocgc.func2 (10ms)">
<polygon fill="#f8f8f8" stroke="black" points="1243,-475 1150,-475 1150,-439 1243,-439 1243,-475"/>
<text text-anchor="middle" x="1196.5" y="-459.6" font-family="Times,serif" font-size="8.00">runtime.mallocgc.func2</text>
<text text-anchor="middle" x="1196.5" y="-450.6" font-family="Times,serif" font-size="8.00">0 of 10ms(3.12%)</text>
</a>
</g>
</g>
<!-- N33&#45;&gt;N30 -->
<g id="edge37" class="edge"><title>N33&#45;&gt;N30</title>
<g id="a_edge37"><a xlink:title="runtime.mallocgc.func2 &#45;&gt; runtime.mCache_Refill (10ms)">
<path fill="none" stroke="black" d="M1196.5,-438.799C1196.5,-427.163 1196.5,-411.548 1196.5,-398.237"/>
<polygon fill="black" stroke="black" points="1200,-398.175 1196.5,-388.175 1193,-398.175 1200,-398.175"/>
</a>
</g>
<g id="a_edge37&#45;label"><a xlink:title="runtime.mallocgc.func2 &#45;&gt; runtime.mCache_Refill (10ms)">
<text text-anchor="middle" x="1213.5" y="-409.8" font-family="Times,serif" font-size="14.00"> 10ms</text>
</a>
</g>
</g>
<!-- N34&#45;&gt;N33 -->
<g id="edge38" class="edge"><title>N34&#45;&gt;N33</title>
<g id="a_edge38"><a xlink:title="runtime.systemstack &#45;&gt; runtime.mallocgc.func2 (10ms)">
<path fill="none" stroke="black" d="M1196.5,-537.658C1196.5,-523.175 1196.5,-502.263 1196.5,-485.499"/>
<polygon fill="black" stroke="black" points="1200,-485.191 1196.5,-475.192 1193,-485.192 1200,-485.191"/>
</a>
</g>
<g id="a_edge38&#45;label"><a xlink:title="runtime.systemstack &#45;&gt; runtime.mallocgc.func2 (10ms)">
<text text-anchor="middle" x="1213.5" y="-496.8" font-family="Times,serif" font-size="14.00"> 10ms</text>
</a>
</g>
</g>
<!-- N35&#45;&gt;N15 -->
<g id="edge39" class="edge"><title>N35&#45;&gt;N15</title>
<g id="a_edge39"><a xlink:title="runtime.typedmemmove &#45;&gt; runtime.memmove (10ms)">
<path fill="none" stroke="black" d="M574.5,-645.079C574.5,-628.859 574.5,-604.39 574.5,-585.356"/>
<polygon fill="black" stroke="black" points="578,-585.155 574.5,-575.155 571,-585.155 578,-585.155"/>
</a>
</g>
<g id="a_edge39&#45;label"><a xlink:title="runtime.typedmemmove &#45;&gt; runtime.memmove (10ms)">
<text text-anchor="middle" x="591.5" y="-607.8" font-family="Times,serif" font-size="14.00"> 10ms</text>
</a>
</g>
</g>
<!-- N36&#45;&gt;N1 -->
<g id="edge40" class="edge"><title>N36&#45;&gt;N1</title>
<g id="a_edge40"><a xlink:title="runtime.unlock &#45;&gt; runtime.xchg (10ms)">
<path fill="none" stroke="black" d="M456.978,-645.079C444.587,-631.173 426.796,-611.204 411.284,-593.795"/>
<polygon fill="black" stroke="black" points="413.611,-591.145 404.345,-586.007 408.384,-595.802 413.611,-591.145"/>
</a>
</g>
<g id="a_edge40&#45;label"><a xlink:title="runtime.unlock &#45;&gt; runtime.xchg (10ms)">
<text text-anchor="middle" x="448.5" y="-607.8" font-family="Times,serif" font-size="14.00"> 10ms</text>
</a>
</g>
</g>
<!-- N38 -->
<g id="node39" class="node"><title>N38</title>
<g id="a_node39"><a xlink:title="strconv.atof64 (30ms)">
<polygon fill="#f8f8f8" stroke="black" points="242.5,-681.5 168.5,-681.5 168.5,-645.5 242.5,-645.5 242.5,-681.5"/>
<text text-anchor="middle" x="205.5" y="-666.1" font-family="Times,serif" font-size="8.00">strconv.atof64</text>
<text text-anchor="middle" x="205.5" y="-657.1" font-family="Times,serif" font-size="8.00">0 of 30ms(9.38%)</text>
</a>
</g>
</g>
<!-- N37&#45;&gt;N38 -->
<g id="edge20" class="edge"><title>N37&#45;&gt;N38</title>
<g id="a_edge20"><a xlink:title="strconv.ParseFloat &#45;&gt; strconv.atof64 (30ms)">
<path fill="none" stroke="black" d="M205.5,-749.197C205.5,-733.423 205.5,-709.864 205.5,-691.594"/>
<polygon fill="black" stroke="black" points="209,-691.547 205.5,-681.547 202,-691.547 209,-691.547"/>
</a>
</g>
<g id="a_edge20&#45;label"><a xlink:title="strconv.ParseFloat &#45;&gt; strconv.atof64 (30ms)">
<text text-anchor="middle" x="222.5" y="-711.8" font-family="Times,serif" font-size="14.00"> 30ms</text>
</a>
</g>
</g>
<!-- N38&#45;&gt;N3 -->
<g id="edge22" class="edge"><title>N38&#45;&gt;N3</title>
<g id="a_edge22"><a xlink:title="strconv.atof64 &#45;&gt; strconv.readFloat (20ms)">
<path fill="none" stroke="black" d="M205.5,-645.079C205.5,-629.645 205.5,-606.744 205.5,-588.162"/>
<polygon fill="black" stroke="black" points="209,-588.084 205.5,-578.084 202,-588.084 209,-588.084"/>
</a>
</g>
<g id="a_edge22&#45;label"><a xlink:title="strconv.atof64 &#45;&gt; strconv.readFloat (20ms)">
<text text-anchor="middle" x="222.5" y="-607.8" font-family="Times,serif" font-size="14.00"> 20ms</text>
</a>
</g>
</g>
<!-- N38&#45;&gt;N18 -->
<g id="edge41" class="edge"><title>N38&#45;&gt;N18</title>
<g id="a_edge41"><a xlink:title="strconv.atof64 &#45;&gt; strconv.atof64exact (10ms)">
<path fill="none" stroke="black" d="M182.043,-645.315C158.312,-627.928 121.411,-600.893 94.6864,-581.314"/>
<polygon fill="black" stroke="black" points="96.5319,-578.327 86.3967,-575.24 92.3949,-583.974 96.5319,-578.327"/>
</a>
</g>
<g id="a_edge41&#45;label"><a xlink:title="strconv.atof64 &#45;&gt; strconv.atof64exact (10ms)">
<text text-anchor="middle" x="159.5" y="-607.8" font-family="Times,serif" font-size="14.00"> 10ms</text>
</a>
</g>
</g>
<!-- N40 -->
<g id="node41" class="node"><title>N40</title>
<g id="a_node41"><a xlink:title="syscall.read (10ms)">
<polygon fill="#f8f8f8" stroke="black" points="871.5,-301 797.5,-301 797.5,-265 871.5,-265 871.5,-301"/>
<text text-anchor="middle" x="834.5" y="-285.6" font-family="Times,serif" font-size="8.00">syscall.read</text>
<text text-anchor="middle" x="834.5" y="-276.6" font-family="Times,serif" font-size="8.00">0 of 10ms(3.12%)</text>
</a>
</g>
</g>
<!-- N39&#45;&gt;N40 -->
<g id="edge42" class="edge"><title>N39&#45;&gt;N40</title>
<g id="a_edge42"><a xlink:title="syscall.Read &#45;&gt; syscall.read (10ms)">
<path fill="none" stroke="black" d="M834.5,-351.799C834.5,-340.163 834.5,-324.548 834.5,-311.237"/>
<polygon fill="black" stroke="black" points="838,-311.175 834.5,-301.175 831,-311.175 838,-311.175"/>
</a>
</g>
<g id="a_edge42&#45;label"><a xlink:title="syscall.Read &#45;&gt; syscall.read (10ms)">
<text text-anchor="middle" x="851.5" y="-322.8" font-family="Times,serif" font-size="14.00"> 10ms</text>
</a>
</g>
</g>
<!-- N40&#45;&gt;N19 -->
<g id="edge43" class="edge"><title>N40&#45;&gt;N19</title>
<g id="a_edge43"><a xlink:title="syscall.read &#45;&gt; syscall.Syscall (10ms)">
<path fill="none" stroke="black" d="M834.5,-264.597C834.5,-253.056 834.5,-237.647 834.5,-224.357"/>
<polygon fill="black" stroke="black" points="838,-224.268 834.5,-214.268 831,-224.268 838,-224.268"/>
</a>
</g>
<g id="a_edge43&#45;label"><a xlink:title="syscall.read &#45;&gt; syscall.Syscall (10ms)">
<text text-anchor="middle" x="851.5" y="-235.8" font-family="Times,serif" font-size="14.00"> 10ms</text>
</a>
</g>
</g>
</g>
</g></svg>
